<?xml version="1.0" encoding="UTF-8"?>
<svg id="Layer_1" xmlns="http://www.w3.org/2000/svg" version="1.1" xmlns:xlink="http://www.w3.org/1999/xlink" viewBox="0 0 500 500">
  <!-- Generator: Adobe Illustrator 30.3.0, SVG Export Plug-In . SVG Version: 2.1.3 Build 182)  -->
  <defs>
    <style>
      .st0 {
        fill: url(#linear-gradient2);
      }

      .st1 {
        fill: #09becd;
      }

      .st2 {
        fill: #fff;
      }

      .st3 {
        fill: #f5f7ff;
      }

      .st4 {
        fill: #fd70e7;
      }

      .st5 {
        fill: #a0b5e7;
      }

      .st6 {
        fill: #31e5d0;
      }

      .st7 {
        fill: #3c2d9f;
      }

      .st8 {
        fill: #fdba3f;
      }

      .st9 {
        fill: #5a43d9;
      }

      .st10 {
        fill: #26145a;
      }

      .st11 {
        fill: url(#linear-gradient7);
      }

      .st12 {
        fill: url(#linear-gradient4);
      }

      .st13 {
        fill: #0040e3;
      }

      .st14 {
        fill: url(#linear-gradient5);
      }

      .st15 {
        fill: url(#linear-gradient3);
      }

      .st16 {
        fill: #fab8be;
      }

      .st17 {
        fill: #ced9f6;
      }

      .st18 {
        fill: url(#linear-gradient1);
        isolation: isolate;
        opacity: .2;
      }

      .st19 {
        fill: url(#linear-gradient6);
      }

      .st20 {
        fill: #a0b5e9;
      }

      .st21 {
        fill: url(#linear-gradient);
      }

      .st22 {
        fill: #4e8ef7;
      }
    </style>
    <linearGradient id="linear-gradient" x1="-707.4" y1="789.7" x2="-706.4" y2="789.7" gradientTransform="translate(-96395.9 65968.7) rotate(-180) scale(136.7 83.1)" gradientUnits="userSpaceOnUse">
      <stop offset="0" stop-color="#ecf0fa"/>
      <stop offset=".4" stop-color="#e7ecf9"/>
      <stop offset=".8" stop-color="#d9e1f7"/>
      <stop offset="1" stop-color="#ced9f6"/>
    </linearGradient>
    <linearGradient id="linear-gradient1" x1="-708.3" y1="790.3" x2="-707.3" y2="790.3" gradientTransform="translate(-216558.3 301178.6) rotate(-180) scale(306.3 380.8)" gradientUnits="userSpaceOnUse">
      <stop offset="0" stop-color="#0040e3"/>
      <stop offset=".1" stop-color="#0443e3"/>
      <stop offset=".3" stop-color="#124de4"/>
      <stop offset=".4" stop-color="#295ee6"/>
      <stop offset=".6" stop-color="#4976e9"/>
      <stop offset=".7" stop-color="#7192ed"/>
      <stop offset=".9" stop-color="#a1b7f1"/>
      <stop offset="1" stop-color="#ced9f6"/>
    </linearGradient>
    <linearGradient id="linear-gradient2" x1="-707.2" y1="790.1" x2="-706.2" y2="790.1" gradientTransform="translate(-83847.9 131491.2) rotate(-180) scale(119.2 166.3)" gradientUnits="userSpaceOnUse">
      <stop offset="0" stop-color="#0040e3" stop-opacity=".2"/>
      <stop offset=".4" stop-color="#4c79ea" stop-opacity=".5"/>
      <stop offset="1" stop-color="#ced9f6"/>
    </linearGradient>
    <linearGradient id="linear-gradient3" x1="-704.7" y1="789.5" x2="-703.7" y2="789.5" gradientTransform="translate(-34821.7 48272.3) rotate(-180) scale(49.7 60.8)" gradientUnits="userSpaceOnUse">
      <stop offset="0" stop-color="#ecf0fa"/>
      <stop offset=".4" stop-color="#e8edf9"/>
      <stop offset=".7" stop-color="#dce4f7"/>
      <stop offset="1" stop-color="#ced9f6"/>
    </linearGradient>
    <linearGradient id="linear-gradient4" x1="-704.7" y1="789.5" x2="-703.7" y2="789.5" gradientTransform="translate(-34854.7 48328.8) rotate(-180) scale(49.7 60.8)" xlink:href="#linear-gradient3"/>
    <linearGradient id="linear-gradient5" x1="-703.6" y1="790.1" x2="-702.6" y2="790.1" gradientTransform="translate(-27487.3 120837.5) rotate(-180) scale(39.6 152.5)" gradientUnits="userSpaceOnUse">
      <stop offset="0" stop-color="#ced9f6"/>
      <stop offset="1" stop-color="#a0b5e7"/>
    </linearGradient>
    <linearGradient id="linear-gradient6" x1="-703.6" y1="790" x2="-702.6" y2="790" gradientTransform="translate(-27552.5 102854.9) rotate(-180) scale(39.6 129.7)" xlink:href="#linear-gradient5"/>
    <linearGradient id="linear-gradient7" x1="-703.6" y1="789.9" x2="-702.6" y2="789.9" gradientTransform="translate(-27618.4 77106.2) rotate(-180) scale(39.6 97.1)" xlink:href="#linear-gradient5"/>
  </defs>
  <g id="icon">
    <path id="Path_572" class="st20" d="M237,296.1l39.9-19.5v41.6s-39.9,23.2-39.9,23.2v-45.3Z"/>
    <path id="Path_573" class="st21" d="M204.9,375.7v-.2c-.4-2.3,1.1-4.9,4.6-6.9l21.5-12.4c3.7-2.1,5.9-6,5.9-10.3v-4.5s39.9-23.2,39.9-23.2v1.3c0,3.3,2.6,5.9,5.9,5.9,1,0,2.1-.3,3-.8l9.5-5.5c5.5-3.2,13.7-3.7,18.3-1.3l25,13.1c2.1,1.1,3.1,2.7,3,4.3,0,0,0,6,0,6,0,2-1.7,4.2-4.7,5.9l-85.5,49.4c-5.5,3.2-13.7,3.7-18.3,1.3l-25-13.1c-4-2.4-3.1-5.7-3.1-9.2Z"/>
    <path id="Path_574" class="st18" d="M100.4,365.7v-178.4c0-12.8,6.7-24.6,17.8-31L370.7,10.2c5.1-3,11.4-3.2,16.7-.5,1.8,1,10.5,5.7,9.9,5.4,5.8,3.1,9.4,9.1,9.4,15.7v177.9c0,12.7-6.7,24.4-17.7,30.8l-252.6,146.8c-9.6,5.6-17.8.7-27.7-5.5-5.2-3.2-8.4-8.9-8.4-15Z"/>
    <path id="Path_575" class="st9" d="M108.4,375.4c-2.8-2.6-4.4-6.2-4.4-10v-178.4c0-11.3,6-21.8,15.8-27.5L372.2,13.4c3.1-1.9,6.9-2.3,10.4-1.3-1.3.4-2.6,1-3.8,1.7L126.3,159.8c-13.2,7.2-18.6,16.5-18.6,32.4v178.4c0,1.6.2,3.2.6,4.8Z"/>
    <path id="Path_576" class="st3" d="M383.7,38.4v172.8s-251.4,146.3-251.4,146.3v-173.4S383.7,38.4,383.7,38.4Z"/>
    <g id="Group_300">
      <path id="Path_577" class="st1" d="M186,178.7v-.5c0-1.6.9-3.1,2.3-3.9l68.7-39.6c.9-.5,2-.2,2.5.7.2.3.2.6.2.9v.5c0,1.6-.9,3.1-2.3,3.9l-68.7,39.6c-.9.5-2,.2-2.5-.7-.2-.3-.2-.6-.2-.9Z"/>
      <path id="Path_578" class="st6" d="M310.2,225.7v-.5c0-1.6.9-3.1,2.3-3.9l60.7-35.8c.9-.5,2-.2,2.5.7.2.3.2.6.2.9v.5c0,1.6-.9,3.1-2.3,3.9l-60.7,35.8c-.9.5-2,.2-2.5-.7-.2-.3-.2-.6-.2-.9Z"/>
      <path id="Path_579" class="st4" d="M219.5,145.7v-.5c0-1.6.9-3.1,2.3-3.9l35.5-20.7c.9-.5,2-.2,2.5.7.2.3.2.6.2.9v.5c0,1.6-.9,3.1-2.3,3.9l-35.5,20.7c-.9.5-2,.2-2.5-.7-.2-.3-.2-.6-.2-.9Z"/>
      <g id="Group_299">
        <path id="Path_580" class="st9" d="M371.5,206.7c-.7-.5-1.1-1.4-1-2.2,0-2,1-3.9,2.7-5,.6-.4,1.4-.5,2-.2.7.5,1.1,1.4,1,2.3,0,2-1,3.8-2.7,5-.4.2-.8.4-1.3.4-.3,0-.6,0-.8-.2ZM374.4,199.8c-.3,0-.6.1-.9.3-1.4,1-2.3,2.6-2.4,4.4,0,.6.2,1.2.6,1.6.5.2,1,.1,1.4-.2,1.4-1,2.3-2.6,2.3-4.3,0-.6-.2-1.3-.6-1.7-.1,0-.3-.1-.4-.1h0Z"/>
        <path id="Path_581" class="st9" d="M362.5,212.1c-.7-.5-1.1-1.4-1-2.2,0-2,1-3.9,2.7-5,.6-.4,1.4-.5,2-.2.7.5,1.1,1.4,1,2.3,0,2-1,3.8-2.7,5-.4.2-.8.4-1.3.4-.3,0-.6,0-.8-.2ZM364.6,205.5c-1.4,1-2.3,2.6-2.4,4.4,0,.6.2,1.2.6,1.6.5.2,1,.1,1.4-.2,1.4-1,2.3-2.6,2.3-4.3,0-.6-.2-1.3-.6-1.7-.1,0-.3-.1-.4-.1-.3,0-.6.1-.8.3Z"/>
        <path id="Path_582" class="st9" d="M353.4,217.3c-.7-.5-1.1-1.4-1-2.2,0-2,1-3.9,2.7-5,.6-.4,1.4-.5,2-.2.7.5,1.1,1.4,1,2.3,0,2-1,3.8-2.7,5-.4.2-.8.4-1.3.4-.3,0-.6,0-.8-.2ZM356.4,210.4c-.3,0-.6.1-.8.3-1.4,1-2.3,2.6-2.4,4.4,0,.6.2,1.2.6,1.6.5.2,1,.1,1.4-.2,1.4-1,2.3-2.6,2.3-4.3,0-.6-.2-1.3-.6-1.7-.1,0-.3-.1-.4-.1h0Z"/>
      </g>
    </g>
    <path id="Path_583" class="st0" d="M317.8,104.4l55.3-32,29.9-17.3,18.4-10.6,1.8-1c2.4-1.4,5.4-.6,6.8,1.8.4.8.7,1.6.7,2.5v88.7c0,4.5-2.4,8.6-6.3,10.8l-105.4,61c-2.4,1.4-5.4.6-6.8-1.8-.4-.8-.7-1.6-.7-2.5v-88.8c0-4.5,2.4-8.6,6.3-10.8Z"/>
    <g id="Group_301">
      <path id="Path_584" class="st9" d="M404,117.7v30.5c3.8-2.2,6.8-4,8.7-5.1v-30.5s-8.7,5.1-8.7,5.1Z"/>
      <path id="Path_585" class="st9" d="M375.8,150.8v13.7c3-1.7,5.9-3.4,8.7-5.1v-13.7s-8.7,5-8.7,5Z"/>
      <path id="Path_586" class="st4" d="M361.1,132.8v40.3c2.8-1.6,5.8-3.3,8.7-5.1v-40.3s-8.7,5.1-8.7,5.1Z"/>
      <path id="Path_587" class="st9" d="M346.5,155.1v26.5s8.7-5.1,8.7-5.1v-26.4s-8.7,5.1-8.7,5.1Z"/>
      <path id="Path_588" class="st4" d="M331.8,135.9v54.1c1.5-.9,4.6-2.7,8.8-5.1v-54.1s-8.8,5.1-8.8,5.1Z"/>
      <path id="Path_589" class="st4" d="M390.4,85.3v70.8c3.1-1.8,6-3.5,8.8-5.1v-70.8s-8.8,5.1-8.8,5.1Z"/>
    </g>
    <path id="Path_590" class="st13" d="M69.6,164.1v93.4c0,2.9,2.4,5.3,5.3,5.3.9,0,1.8-.2,2.6-.7l110.9-64.2c4.1-2.4,6.6-6.7,6.6-11.4v-93.3c0-2.9-2.4-5.3-5.3-5.3-.9,0-1.8.2-2.6.7l-110.9,64.1c-4.1,2.3-6.6,6.7-6.6,11.4Z"/>
    <path id="Path_591" class="st2" d="M158.3,161.2c0,1.4.8,2,1.9,1.3,1.2-.8,1.9-2.1,1.9-3.5,0-1.2-.6-1.8-1.5-1.6v-53.8s-.8.5-.8.5v53.9c-.9.8-1.4,2-1.5,3.2Z"/>
    <path id="Path_592" class="st4" d="M130.4,175.5c0,1.4.8,2,1.9,1.3,1.2-.8,1.9-2.1,1.9-3.5,0-1.2-.6-1.8-1.5-1.6v-51.9s-.8.5-.8.5v52c-.9.8-1.5,2-1.5,3.2Z"/>
    <path id="Path_593" class="st2" d="M102.5,189.8c0,1.4.8,2,1.9,1.3,1.2-.8,1.9-2.1,1.9-3.5,0-1.2-.6-1.8-1.5-1.6v-50.1s-.8.5-.8.5v50.1c-.9.8-1.4,2-1.5,3.2Z"/>
    <path id="Path_594" class="st2" d="M76.7,222.3c5.7,0,9.2-5.4,12.6-10.7,2.3-3.6,4.5-7,7.4-8.7,4-2.4,8.7-1.8,12.8,1.6,1.1,1,2.2,2.1,3.1,3.3,2.7,3.2,5.8,6.8,9.4,6.3,3.1-.5,4.9-4.4,5.8-6.5,1.6-3.6,2.8-7.2,3.8-11,0-.1,0-.3.1-.4l.2-.5c2.6-9.1,5.1-17.6,10.7-18.1,2.4-.4,4.6,1.4,5.7,2.5,1.2,1.2,2.2,2.5,3.1,4,1.9,2.9,4,6.2,6.8,6.2,3.6-.4,5.3-6.1,6.4-9.9.2-.7.4-1.3.5-1.8.2-.5.4-1.1.5-1.6,1.4-4.3,2.9-8.8,5.8-12.1,0,0,0,0,0-.1,2.1-2.7,5.6-4,9-3.2,1.1.3,2.1.7,3.1,1.1,1.9.8,3.8,1.7,6,1.3.7,0,1.4-.1,2-.3,1.2-.3,2.4-.7,3.5-1.3.2,0,.2-.3.1-.5s-.3-.2-.5-.1h0c-1.1.6-2.2,1-3.4,1.2-.6.2-1.3.3-1.9.3-2.1.3-3.8-.5-5.7-1.3-1-.5-2.1-.9-3.2-1.2-3.6-.8-7.3.5-9.6,3.3,0,0,0,0-.1.1-3,3.5-4.5,8.1-6,12.4-.2.6-.4,1.1-.5,1.6-.2.5-.3,1.1-.6,1.8-1,3.4-2.7,9.1-5.8,9.4-2.4,0-4.4-3.1-6.2-5.9-.9-1.5-1.9-2.9-3.2-4.1-1.2-1.2-3.6-3.1-6.2-2.7-6,.6-8.6,9.3-11.3,18.6l-.2.5c0,.1,0,.2,0,.3-1,3.8-2.2,7.4-3.8,11-.9,2-2.6,5.6-5.3,6.1-3.2.4-6.1-3.1-8.8-6.1-1-1.2-2-2.3-3.2-3.4-4.3-3.6-9.3-4.2-13.6-1.6-3,1.8-5.3,5.4-7.6,9-3.7,5.7-7.5,11.6-14.1,10.1-1.7-.5-3.3-1.3-4.7-2.4-.1-.1-.4,0-.5,0,0,0,0,0,0,0-.1.2,0,.4,0,.5,0,0,0,0,0,0,1.5,1.2,3.2,2,5,2.5.7.2,1.5.3,2.3.3Z"/>
    <g id="Group_302">
      <path id="Path_595" class="st15" d="M188.6,262.8l-14.3,8.3v-23.1c0-1.9,1-3.6,2.6-4.5l44-25.4c1-.6,2.3-.2,2.9.8.2.3.3.7.3,1v37c0,1.9-1,3.6-2.6,4.5l-29.7,17.2v-14c0-1.2-.9-2.1-2.1-2.1-.4,0-.7,0-1,.3Z"/>
      <path id="Path_596" class="st12" d="M144.6,288.2l29.7-17.2v14c0,1.2.9,2.1,2.1,2.1.4,0,.7,0,1-.3l14.3-8.3v23.1c0,1.9-1,3.6-2.6,4.5l-44,25.5c-1,.6-2.3.2-2.8-.8-.2-.3-.3-.7-.3-1v-37c0-1.9,1-3.6,2.6-4.5Z"/>
      <path id="Path_597" class="st17" d="M174.3,285v-14s14.3-8.3,14.3-8.3c1-.6,2.3-.2,2.8.8.2.3.3.7.3,1v14s-14.3,8.3-14.3,8.3c-1,.6-2.3.2-2.9-.8-.2-.3-.3-.7-.3-1Z"/>
    </g>
    <g id="Group_309">
      <g id="Group_304">
        <path id="Path_598" class="st22" d="M369.9,281.5l-39.6-22.9,39.6-22.9,39.6,22.9-39.6,22.9Z"/>
        <g id="Group_303">
          <path id="Path_599" class="st14" d="M409.5,258.5v129.6s-39.6,22.9-39.6,22.9v-129.6s39.6-22.9,39.6-22.9Z"/>
          <path id="Path_600" class="st9" d="M369.9,281.5v129.6s-39.6-22.9-39.6-22.9v-129.6s39.6,22.9,39.6,22.9Z"/>
        </g>
      </g>
      <g id="Group_306">
        <path id="Path_601" class="st22" d="M304.7,342.4l-39.6-22.9,39.6-22.9,39.6,22.9-39.6,22.9Z"/>
        <g id="Group_305">
          <path id="Path_602" class="st19" d="M344.3,319.4v106.8s-39.6,22.9-39.6,22.9v-106.8s39.6-22.9,39.6-22.9Z"/>
          <path id="Path_603" class="st9" d="M304.7,342.4v106.8s-39.6-22.9-39.6-22.9v-106.8s39.6,22.9,39.6,22.9Z"/>
        </g>
      </g>
      <g id="Group_308">
        <path id="Path_604" class="st22" d="M238.8,413.5l-39.6-22.9,39.6-22.9,39.6,22.9-39.6,22.9Z"/>
        <g id="Group_307">
          <path id="Path_605" class="st11" d="M278.4,390.5v74.1s-39.6,22.9-39.6,22.9v-74.1s39.6-22.9,39.6-22.9Z"/>
          <path id="Path_606" class="st9" d="M376,415.6c-.1,0-.2-.2-.2-.3v-129.6c0-.1,0-.2.2-.3l39.6-22.9c.1,0,.3,0,.4,0,.1,0,.2.2.2.3v129.6c0,.1,0,.2-.2.3l-39.6,22.9c0,0-.1,0-.2,0,0,0-.1,0-.2,0ZM415.5,263.4l-38.9,22.5v128.7s38.9-22.5,38.9-22.5v-128.7Z"/>
          <path id="Path_607" class="st9" d="M310.9,453.7c-.1,0-.2-.2-.2-.3v-106.8c0-.1,0-.2.2-.3l39.6-22.9c0,0,.1,0,.2,0,.2,0,.4.2.4.4v106.8c0,.1,0,.2-.2.3l-39.6,22.9c0,0-.1,0-.2,0,0,0-.1,0-.2,0ZM350.3,324.3l-38.9,22.5v105.9s38.9-22.5,38.9-22.5v-105.9Z"/>
          <path id="Path_608" class="st9" d="M245.1,492.2s0,0,0,0c-.2,0-.4-.2-.4-.4v-74.1c0-.1,0-.2.2-.3l39.6-22.9c.1,0,.3,0,.4,0,.1,0,.2.2.2.3v74.1c0,.1,0,.2-.2.3l-39.7,22.9c0,0-.1,0-.2,0h0ZM284.4,395.4l-38.9,22.5v73.3s38.9-22.5,38.9-22.5v-73.3Z"/>
          <path id="Path_609" class="st9" d="M238.8,413.5v74.1s-39.6-22.9-39.6-22.9v-74.1s39.6,22.9,39.6,22.9Z"/>
        </g>
      </g>
    </g>
    <g id="Group_317">
      <g id="Group_312">
        <path id="Path_610" class="st10" d="M252.4,247c3.8,0,7.2-2.2,8.7-5.7l38.6-88.6-16.5-10.2-39.5,91.2c-2.1,4.8,0,10.4,4.9,12.5,1.2.5,2.5.8,3.8.8h0Z"/>
        <g id="Group_311">
          <path id="Path_611" class="st9" d="M265.9,113.2c0-32.1,18.4-68.2,44.2-83,11.7-6.8,21.9-7.6,29.7-3.8l18.4,10.4-15.4.3-14.5,5.1-16.4,14.1-13.1,19.1-10.4,22.5-2.8,28.7,3.9,17.2,9.6,15.5-18.1-10.3c-9.4-5.2-15.1-17.9-15.1-35.7Z"/>
          <g id="Group_310">
            <path id="Path_612" class="st7" d="M351.1,60.8c0-10.3-2-18.7-5.5-25,20,5.2,22.5,17.5,22.5,35.4,0,31.1-18.8,66.3-42.8,80.2-5.8,3.3-11.1,5-16,5s-11.9,0-15.6-6.3c4.3-1,8.3-2.7,12.1-4.9,26.3-15.2,45.3-52.3,45.3-84.4Z"/>
            <path id="Path_613" class="st22" d="M283.6,123.2c0,32.1,18.4,47.6,44.1,32.7,26.3-15.2,45.3-52.3,45.3-84.4s-19-46.5-45.3-31.3c-25.7,14.9-44.1,50.9-44.1,83ZM299.9,153.6c-7.2-4.8-11.4-15.7-11.4-30.6,0-31.2,17.9-65,41.7-78.8,6.2-3.6,12-5.4,17.1-5.4,1.5,0,3,.2,4.5.5,10.3,2.5,16.3,14.1,16.3,31.9,0,31.1-18.8,66.3-42.8,80.2-5.8,3.3-11.1,5-16,5-3.4,0-6.6-1-9.4-2.8h0Z"/>
          </g>
        </g>
      </g>
      <g id="Group_316">
        <path id="Path_614" class="st1" d="M224.2,205.1l6.6,21.5c1.3-2.2,3.2-3.9,5.6-4.9,3.7-1.6,10.8-3.9,15-5.3l9.5-22.6-7.6,6.2c-2.7,2.2-5.8,3.8-9.2,4.6-3.3.8-6.7,1.4-10.2,1.8-3.3.3-6.6-.1-9.7-1.2Z"/>
        <g id="Group_315">
          <path id="Path_615" class="st16" d="M294.1,177.7c0-2.7-.4-6.1-2.2-6.9-2.4-1-6.1,7.2-6.1,7.2.2-1,.4-1.9.5-2.9,0-.9-.5-2-1.2-2s-1.2.7-1.2,1.9l-1.6,5.3c0,.8,0,1.5,0,2.3l.3,1.5c.3,1.6.2,3.3-.4,4.8l-2,5.2,6.7,2.9,2.1-8.6c.9-1.4,1.8-2.9,2.8-4.2,1.4-1.9,2.1-4.2,2.2-6.5Z"/>
          <g id="Group_314">
            <path id="Path_616" class="st7" d="M233.6,376s0,2.7-3.3,5.1c-.5.3-1.1.8-1.8,1.2-2.1,1.5-4.2,3.1-6,4.9-.9.9-2,1.4-3.3,1.5-2,.1-3.8-.5-3.6-3.6,0-.2,0-.6,0-.9v-.5c.1-.2.2-5.9.2-6,.2,1,1.7-3,2.5-3,1.3,0,1.1,3.1,2,2.3,1.6-1.5,3.3-.8,7.8-3.1h.9c3.4-.5,4,.6,4.3,1.6,0,.2,0,.3.1.5Z"/>
            <path id="Path_617" class="st7" d="M259.5,390s-3.1-.3-4.2-.3c-2.5,0-7.8-1.6-9.5-.5-1.9,1.3-6.1,2.4-6.2-1.1l-2.4.8c0,.8-.3,5.2-.3,5.4-.1,1.3.2,2.6.9,3.7,1.6,2.5,6.6,1.1,9.4.5l8.5-1.1c2.6-.4,4.8-2.2,5.7-4.7.1-1.3-.7-2.4-2-2.7Z"/>
            <path id="Path_618" class="st10" d="M214.3,267.4l-1,3.7c-.2.9-.4,1.8-.5,2.8-.4,4.4-.5,8.9-.2,13.3l.7,9.7,2.2,79.8c-.2,3.2,10.5,3.5,10.4-.3l2-83.6,3.4,1.4,5.6,94c0,3.3,10.7,3.6,10.8-.4,0,0,3.2-95,3.5-109.9.3-10.5-18.8-7.7-18.8-8.1l9.9-7.7-28,5.2Z"/>
            <path id="Path_619" class="st6" d="M214.1,247.5l-3-31.1c-.3-7.8,5.5-11.7,11.3-12,.5,0,1.1,0,1.6,0,1.4,0,2.8.4,4.1.9.5.2,4.3-2.1,4.8-1.8l6.6,3.5h.2c0,.1,4.1,2.8,5.4,3,4.6,1,6.6.7,11.6.8,4.8.1,11.2.1,13.9,0,.8,0,1.5-.5,1.8-1.2l8.9-20.6c1.3-1.9,9.3,1.2,8.6,3.6,0,0-7.5,29.2-11.2,31.1-4.4,2.2-17.1,1.4-21.6,3.7-3.1,1.6-2.2,2.9-3,6.3l-.2.8c-1.2,5.2-1.7,10.5-1.4,15.8.4,9.1,1,23,.4,24.2-2.9,6.1-39.2,4.4-39.7-4.7l1-17.8c0-1.5,0-3,0-4.5Z"/>
            <path id="Path_620" class="st16" d="M247.7,195.9c-1.7,8.6-7.5,9.4-12.8,6.8-6-2.9-9.7-10-10-15.1-.5-7.9,4.4-13,10.9-13.4,14.8-1,12.6,18.7,12,21.7Z"/>
            <path id="Path_621" class="st16" d="M228.4,191.8l.6,17.1c0,.8.8,1.5,2.2,2,2.5.8,5.1.5,7.4-.8.6-.3,1-.9,1-1.6,0,0-.6-17.2-.6-17.2l-10.6.4Z"/>
            <path id="Path_622" class="st10" d="M235.3,185.2c1.7,2.3,4.4,3.7,7.3,3.6.9,0,1.7-2.1,2.8-3.4.7-.8,1.8-.8,2.2-1.2,1.9-1.7,2.2-7.9-2.1-10.4-3.5-2-7.5-2.7-11.4-1.9-.4,0,2.3,1.4,2,1.7-3.4,2.6-3.7,7.7-.8,11.5Z"/>
            <g id="Group_313">
              <path id="Path_623" class="st10" d="M233.5,198.1l1.3-5.1c.7-2.8,2.8-5,5.5-5.9l5.1-1.7c-.3,4.3-2.1,7.9-6.1,12.1-1.6,1.8-3.7,3.1-6,3.7v-.8c0-.8,0-1.5.2-2.3Z"/>
              <path id="Path_624" class="st10" d="M234.1,171.9c6.2-.6,11.3,4.6,11.3,12.1,0,.5,0,.9,0,1.4l-5.1,1.7c-2.7.9-4.8,3.1-5.5,5.9l-1.3,5.1c-.2.8-.3,1.5-.2,2.3v.8c-3.8.9-8.2-2-9.6-7.3-.8-2.8-7.6-20.3,10.5-21.9Z"/>
            </g>
            <path id="Path_625" class="st16" d="M243.4,194.1c1.4,1.8,1.7,4,.5,4.9-1.2.9-3.2.2-4.7-1.5-1.4-1.8-1.7-4-.5-4.9,1.1-.9,3.2-.2,4.7,1.5Z"/>
          </g>
        </g>
      </g>
    </g>
    <path id="Path_626" class="st5" d="M206.6,74.8l5.9-5.9,5.9,5.9-5.9,5.9-5.9-5.9ZM212.5,69.9l-4.9,4.9,4.9,4.9,4.9-4.9-4.9-4.9Z"/>
    <path id="Path_627" class="st5" d="M170.8,401.8l7.2,9.2h-14.4s7.2-9.2,7.2-9.2ZM170.8,402.9l-5.7,7.3h11.4s-5.7-7.3-5.7-7.3Z"/>
    <path id="Path_628" class="st8" d="M81.6,299.3c2.3-.6,3.8-2.9,3.2-5.2-.6-2.3-2.9-3.8-5.2-3.2-2.3.6-3.8,2.9-3.2,5.2,0,0,0,0,0,0,.6,2.3,2.9,3.7,5.2,3.2Z"/>
    <path id="Path_629" class="st4" d="M416.9,240.2c2.3-.6,3.8-2.9,3.2-5.2-.6-2.3-2.9-3.8-5.2-3.2-2.3.6-3.8,2.9-3.2,5.2,0,0,0,0,0,0,.6,2.3,2.9,3.7,5.2,3.2Z"/>
  </g>
</svg>